<svg id="Layer_1" data-name="Layer 1" xmlns="http://www.w3.org/2000/svg" viewBox="0 0 295.98 375.82"><defs><style>.cls-1{fill:#fff;}.cls-2{fill:#ffe41d;}</style></defs><title>logoIcon</title><path class="cls-1" d="M54,186.79V86.47c0-48.33,25.33-73.66,70.66-73.66,43,0,67.33,21.33,67.33,64.66v24l-47.66,9V78.8c0-19.66-6.67-29.66-20.67-29.66-14.33,0-22,10.33-22,33.33v107c0,22.67,7.66,34.66,22,34.66,13.67,0,21-10.33,21-29.66V159.13L192,168.8v25.66c0,43.33-25.66,66.33-68.33,66.33C78.35,260.79,54,236.12,54,186.79Z" transform="translate(-54.02 -12.81)"/><path class="cls-1" d="M211.34,185.46v-94c0-50,25-78.66,71-78.66,43,0,67,22.66,67,61.32V92.47L302,101.13V75.47c0-18-6.33-28-20.33-28-15.33,0-22.67,12.67-22.67,37v103c0,23.67,7.67,37.33,23.67,37.33s23-14,23-34v-30H279.34V125.46h70.32V255.12H316.33L314,221.46c-5,23.66-21,39.33-47,39.33C230.67,260.79,211.34,233.79,211.34,185.46Z" transform="translate(-54.02 -12.81)"/><path class="cls-2" d="M124,246.77c42.66,0,68.33,13.15,68.33,37.94v14.68L145,304.92V284.71c0-11.06-7.33-17-21-17-14.33,0-22,6.86-22,19.83v61.21c0,13.15,7.67,19.06,22,19.06,14,0,20.67-5.72,20.67-17V332.76l47.66,5.15v13.73c0,24.78-24.33,37-67.33,37-45.33,0-70.66-14.49-70.66-42.14V289.1C54.36,260.88,78.69,246.77,124,246.77Z" transform="translate(-54.02 -12.81)"/><path class="cls-2" d="M267.34,246.77c26,0,42,9,47,22.5L316.67,250H350v74.17H279.67V304H306V286.81c0-11.44-7-19.45-23-19.45s-23.66,7.82-23.66,21.35v58.92c0,13.92,7.33,21.17,22.66,21.17,14,0,20.34-5.72,20.34-16V338.1l47.33,5v10.48c0,22.12-24,35.09-67,35.09-46,0-71-16.4-71-45V289.86C211.68,262.21,231,246.77,267.34,246.77Z" transform="translate(-54.02 -12.81)"/></svg>